<svg width="45" height="32" viewBox="0 0 45 32" fill="none" xmlns="http://www.w3.org/2000/svg">
<rect x="0.5" y="0.5" width="44" height="30.7647" rx="4.79412" fill="#1A1A1A" stroke="#333333"/>
<path fill-rule="evenodd" clip-rule="evenodd" d="M12.5063 11.0424C12.1286 11.5081 11.5242 11.8755 10.9199 11.823C10.8443 11.1932 11.1402 10.5241 11.4865 10.1109C11.8642 9.632 12.5252 9.29089 13.0602 9.26465C13.1232 9.92063 12.8777 10.5635 12.5063 11.0424ZM13.054 11.9478C12.5216 11.9158 12.0358 12.1146 11.6434 12.2752C11.3908 12.3785 11.177 12.466 11.0143 12.466C10.8318 12.466 10.6091 12.3738 10.3591 12.2703C10.0315 12.1347 9.657 11.9797 9.26426 11.9871C8.36405 12.0002 7.52679 12.5316 7.06724 13.3778C6.12296 15.0702 6.82172 17.5761 7.73453 18.9536C8.18149 19.6358 8.71658 20.3837 9.42164 20.3574C9.73182 20.3452 9.95495 20.2466 10.1859 20.1445C10.4517 20.0269 10.7279 19.9048 11.1591 19.9048C11.5754 19.9048 11.8395 20.0237 12.093 20.1379C12.334 20.2465 12.5655 20.3507 12.9092 20.3443C13.6394 20.3312 14.099 19.6621 14.5459 18.9799C15.0283 18.2477 15.2402 17.5331 15.2724 17.4246L15.2762 17.4121C15.2754 17.4113 15.2694 17.4084 15.2589 17.4034C15.0977 17.3265 13.8653 16.7386 13.8535 15.1621C13.8416 13.8388 14.831 13.1684 14.9867 13.0628C14.9962 13.0564 15.0026 13.0521 15.0055 13.0498C14.376 12.0789 13.3939 11.974 13.054 11.9478ZM18.1091 20.2721V10.0453H21.7917C23.6929 10.0453 25.0212 11.4098 25.0212 13.4039C25.0212 15.3981 23.6677 16.7757 21.7414 16.7757H19.6325V20.2721H18.1091ZM19.6324 11.3834H21.3888C22.7108 11.3834 23.4662 12.1181 23.4662 13.4104C23.4662 14.7027 22.7108 15.4439 21.3825 15.4439H19.6324V11.3834ZM30.0511 19.0453C29.6482 19.8456 28.7606 20.3507 27.8037 20.3507C26.3873 20.3507 25.399 19.4717 25.399 18.1466C25.399 16.8346 26.3558 16.0802 28.1248 15.9687L30.0259 15.8507V15.2865C30.0259 14.4534 29.5034 14.0008 28.5717 14.0008C27.8037 14.0008 27.2435 14.4141 27.1301 15.0438H25.7578C25.8019 13.7187 26.9979 12.7544 28.6158 12.7544C30.3596 12.7544 31.4927 13.7056 31.4927 15.1816V20.272H30.0826V19.0453H30.0511ZM28.2128 19.1371C27.4007 19.1371 26.8845 18.7304 26.8845 18.1072C26.8845 17.4643 27.3819 17.0904 28.3324 17.0314L30.0258 16.9199V17.4971C30.0258 18.4549 29.2452 19.1371 28.2128 19.1371ZM36.17 20.6723C35.5594 22.4631 34.8606 23.0535 33.375 23.0535C33.2617 23.0535 32.884 23.0404 32.7958 23.0141V21.7874C32.8903 21.8006 33.1232 21.8137 33.2428 21.8137C33.9164 21.8137 34.2941 21.5185 34.527 20.751L34.6655 20.2984L32.0845 12.853H33.6772L35.4713 18.8946H35.5028L37.2969 12.853H38.8455L36.17 20.6723Z" fill="white"/>
</svg>
